<svg xmlns="http://www.w3.org/2000/svg" style="display: none;">
    <symbol id="icon-4chan" viewBox="0 0 512 512">
      <path d="m94 99c0-26 84-61 123 85 0 0-127 25-145-4-18-28 46-45 46-55 0-10-24-1-24-26z m0 0c0-26 84-61 123 85 0 0-127 25-145-4-18-28 46-45 46-55 0-10-24-1-24-26z m0 0c0-26 84-61 123 85 0 0-127 25-145-4-18-28 46-45 46-55 0-10-24-1-24-26z m311-13c26 0 62 84-85 124 0 0-25-128 4-146 28-17 45 46 55 46 10 0 1-24 26-24z m0 0c26 0 62 84-85 124 0 0-25-128 4-146 28-17 45 46 55 46 10 0 1-24 26-24z m0 0c26 0 62 84-85 124 0 0-25-128 4-146 28-17 45 46 55 46 10 0 1-24 26-24z m9 328c-2 26-87 56-118-92 0 0 129-17 145 12 16 30-49 42-50 52 0 11 25 3 23 28z m0 0c-2 26-87 56-118-92 0 0 129-17 145 12 16 30-49 42-50 52 0 11 25 3 23 28z m0 0c-2 26-87 56-118-92 0 0 129-17 145 12 16 30-49 42-50 52 0 11 25 3 23 28z m-289 20c-26 3-70-77 71-132 0 0 39 124 12 145-26 20-49-41-59-40-11 1 1 24-24 27z m0 0c-26 3-70-77 71-132 0 0 39 124 12 145-26 20-49-41-59-40-11 1 1 24-24 27z m0 0c-26 3-70-77 71-132 0 0 39 124 12 145-26 20-49-41-59-40-11 1 1 24-24 27z"/>
    </symbol>
</svg>
